<?xml version="1.0" encoding="utf-8"?>
<!-- Generator: Adobe Illustrator 18.1.1, SVG Export Plug-In . SVG Version: 6.00 Build 0)  -->
<svg version="1.1" id="Layer_1" xmlns="http://www.w3.org/2000/svg" xmlns:xlink="http://www.w3.org/1999/xlink" x="0px" y="0px"
	 viewBox="-91 324.2 1882 1904" enable-background="new -91 324.2 1882 1904" xml:space="preserve">
<circle fill="#6ABFEB" cx="857" cy="486.2" r="123"/>
<circle fill="#6ABFEB" cx="1255" cy="599.3" r="123"/>
<circle fill="#6ABFEB" cx="1545" cy="901.3" r="123"/>
<circle fill="#6ABFEB" cx="1641.1" cy="1275.6" r="123"/>
<circle fill="#6ABFEB" cx="1557.1" cy="1671.6" r="123"/>
<circle fill="#6ABFEB" cx="1254" cy="1960.2" r="123"/>
<circle fill="#6ABFEB" cx="849.7" cy="2069" r="123"/>
<circle fill="#6ABFEB" cx="448.1" cy="1960.2" r="123"/>
<circle fill="#6ABFEB" cx="156.1" cy="1671.6" r="123"/>
<circle fill="#6ABFEB" cx="52.4" cy="1275.7" r="123"/>
<circle fill="#6ABFEB" cx="166.4" cy="889.7" r="123"/>
<circle fill="#6ABFEB" cx="462.4" cy="599.3" r="123"/>
<circle fill="#6ABFEB" cx="857" cy="486.2" r="123"/>
<circle fill="#6ABFEB" cx="1255" cy="599.3" r="123"/>
<circle fill="#6ABFEB" cx="1545" cy="901.3" r="123"/>
<circle fill="#6ABFEB" cx="1641.1" cy="1275.6" r="123"/>
<circle fill="#6ABFEB" cx="1557.1" cy="1671.6" r="123"/>
<circle fill="#6ABFEB" cx="1254" cy="1960.2" r="123"/>
<circle fill="#6ABFEB" cx="849.7" cy="2069" r="123"/>
<circle fill="#6ABFEB" cx="448.1" cy="1960.2" r="123"/>
<circle fill="#6ABFEB" cx="156.1" cy="1671.6" r="123"/>
<circle fill="#6ABFEB" cx="52.4" cy="1275.7" r="123"/>
<circle fill="#6ABFEB" cx="166.4" cy="889.7" r="123"/>
<circle fill="#1A2D18" cx="849.7" cy="1272.2" r="63.6"/>
</svg>
